<?xml version="1.0" encoding="UTF-8" standalone="no"?>
<svg
   xmlns:dc="http://purl.org/dc/elements/1.1/"
   xmlns:cc="http://creativecommons.org/ns#"
   xmlns:rdf="http://www.w3.org/1999/02/22-rdf-syntax-ns#"
   xmlns:svg="http://www.w3.org/2000/svg"
   xmlns="http://www.w3.org/2000/svg"
   viewBox="0 0 1066.6667 1706.6667"
   height="1706.6667"
   width="1066.6667"
   xml:space="preserve"
   id="svg2"
   version="1.1"><metadata
     id="metadata8"><rdf:RDF><cc:Work
         rdf:about=""><dc:format>image/svg+xml</dc:format><dc:type
           rdf:resource="http://purl.org/dc/dcmitype/StillImage" /></cc:Work></rdf:RDF></metadata><defs
     id="defs6"><clipPath
       id="clipPath18"
       clipPathUnits="userSpaceOnUse"><path
         id="path16"
         d="M 0,1280 H 800 V 0 H 0 Z" /></clipPath><clipPath
       id="clipPath62"
       clipPathUnits="userSpaceOnUse"><path
         id="path60"
         d="M 0,1280 H 800 V 0 H 0 Z" /></clipPath></defs><g
     transform="matrix(1.3333333,0,0,-1.3333333,0,1706.6667)"
     id="g10"><g
       id="g12"><g
         clip-path="url(#clipPath18)"
         id="g14"><g
           transform="translate(210.0186,660.1138)"
           id="g20"><path
             id="path22"
             style="fill:#000000;fill-opacity:1;fill-rule:nonzero;stroke:none"
             d="m 0,0 h -17.036 c -3.806,0 -6.891,3.085 -6.891,6.892 v 17.035 c 0,3.806 3.085,6.892 6.891,6.892 H 0 c 3.806,0 6.892,-3.086 6.892,-6.892 V 6.892 C 6.892,3.085 3.806,0 0,0" /></g><g
           transform="translate(210.0186,585.6357)"
           id="g24"><path
             id="path26"
             style="fill:#000000;fill-opacity:1;fill-rule:nonzero;stroke:none"
             d="m 0,0 h -17.036 c -3.806,0 -6.891,3.085 -6.891,6.892 v 17.035 c 0,3.806 3.085,6.891 6.891,6.891 H 0 c 3.806,0 6.892,-3.085 6.892,-6.891 V 6.892 C 6.892,3.085 3.806,0 0,0" /></g><g
           transform="translate(248.7988,622.875)"
           id="g28"><path
             id="path30"
             style="fill:#000000;fill-opacity:1;fill-rule:nonzero;stroke:none"
             d="m 0,0 h -17.036 c -3.806,0 -6.891,3.085 -6.891,6.892 v 17.035 c 0,3.806 3.085,6.891 6.891,6.891 H 0 c 3.806,0 6.891,-3.085 6.891,-6.891 V 6.892 C 6.891,3.085 3.806,0 0,0" /></g><g
           transform="translate(248.7988,660.1138)"
           id="g32"><path
             id="path34"
             style="fill:#00c605;fill-opacity:1;fill-rule:nonzero;stroke:none"
             d="m 0,0 h -17.036 c -3.806,0 -6.891,3.085 -6.891,6.892 v 17.035 c 0,3.806 3.085,6.892 6.891,6.892 H 0 c 3.806,0 6.891,-3.086 6.891,-6.892 V 6.892 C 6.891,3.085 3.806,0 0,0" /></g><g
           transform="translate(287.5786,586.1494)"
           id="g36"><path
             id="path38"
             style="fill:#000000;fill-opacity:1;fill-rule:nonzero;stroke:none"
             d="m 0,0 h -17.036 c -3.806,0 -6.891,3.085 -6.891,6.892 v 17.035 c 0,3.806 3.085,6.891 6.891,6.891 H 0 c 3.806,0 6.892,-3.085 6.892,-6.891 V 6.892 C 6.892,3.085 3.806,0 0,0" /></g><g
           transform="translate(287.5786,622.875)"
           id="g40"><path
             id="path42"
             style="fill:#000000;fill-opacity:1;fill-rule:nonzero;stroke:none"
             d="m 0,0 h -17.036 c -3.806,0 -6.891,3.085 -6.891,6.892 v 17.035 c 0,3.806 3.085,6.891 6.891,6.891 H 0 c 3.806,0 6.892,-3.085 6.892,-6.891 V 6.892 C 6.892,3.085 3.806,0 0,0" /></g><g
           transform="translate(287.5786,660.1138)"
           id="g44"><path
             id="path46"
             style="fill:#000000;fill-opacity:1;fill-rule:nonzero;stroke:none"
             d="m 0,0 h -17.036 c -3.806,0 -6.891,3.085 -6.891,6.892 v 17.035 c 0,3.806 3.085,6.892 6.891,6.892 H 0 c 3.806,0 6.892,-3.086 6.892,-6.892 V 6.892 C 6.892,3.085 3.806,0 0,0" /></g><g
           transform="translate(210.0186,622.875)"
           id="g48"><path
             id="path50"
             style="fill:#000000;fill-opacity:1;fill-rule:nonzero;stroke:none"
             d="m 0,0 h -17.036 c -3.806,0 -6.891,3.085 -6.891,6.892 v 17.035 c 0,3.806 3.085,6.891 6.891,6.891 H 0 c 3.806,0 6.892,-3.085 6.892,-6.891 V 6.892 C 6.892,3.085 3.806,0 0,0" /></g></g></g><text
       id="text54"
       style="font-variant:normal;font-weight:500;font-stretch:normal;font-size:112.19709778px;font-family:ABSTER;-inkscape-font-specification:ABSTERRegular;writing-mode:lr-tb;fill:#000000;fill-opacity:1;fill-rule:nonzero;stroke:none"
       transform="matrix(0.75203994,0,0,-1,382.874,589.0688)"><tspan
         id="tspan52"
         y="0"
         x="0 70.908569 149.33434">ERA</tspan></text>
<g
       id="g56"><g
         clip-path="url(#clipPath62)"
         id="g58"><g
           transform="translate(248.7988,585.6357)"
           id="g64"><path
             id="path66"
             style="fill:#00c605;fill-opacity:1;fill-rule:nonzero;stroke:none"
             d="m 0,0 h -17.036 c -3.806,0 -6.891,3.085 -6.891,6.892 v 17.035 c 0,3.806 3.085,6.891 6.891,6.891 H 0 c 3.806,0 6.891,-3.085 6.891,-6.891 V 6.892 C 6.891,3.085 3.806,0 0,0" /></g></g></g><text
       id="text70"
       style="font-variant:normal;font-weight:500;font-stretch:normal;font-size:111.72669983px;font-family:ABSTER;-inkscape-font-specification:ABSTERRegular;writing-mode:lr-tb;fill:#000000;fill-opacity:1;fill-rule:nonzero;stroke:none"
       transform="matrix(1,0,0,-1,301.7593,589.0688)"><tspan
         id="tspan68"
         y="0"
         x="0">H</tspan></text>
</g></svg>